<svg version="1.2" xmlns="http://www.w3.org/2000/svg" viewBox="0 0 490 490" width="1000" height="1000">
	<title>mag-svg</title>
	<style>
		.s0 { fill: none;stroke: #000000;stroke-linecap: round;stroke-width: 36 } 
		.s1 { fill: #e6007a } 
	</style>
	<path id="Layer" fill-rule="evenodd" class="s0" d="m448 450l-104-104-13 13 110 110 26-26-110-110-13 13-66-66c-60.1 59-156.6 58.3-215.9-1.5-59.2-59.8-59-156.3 0.5-215.9 59.6-59.5 156.1-59.7 215.9-0.5 59.8 59.3 60.5 155.8 1.5 215.9"/>
	<g id="Folder 1">
		<path id="Layer" class="s1" d="m170 107c-21.6 0-39.1-10.1-39.1-22.7 0-12.6 17.5-22.8 39.1-22.8 21.6 0 39.1 10.2 39.1 22.8 0 12.6-17.5 22.7-39.1 22.7z"/>
		<path id="Layer" class="s1" d="m170 278.5c-21.6 0-39.1-10.2-39.1-22.8 0-12.6 17.5-22.7 39.1-22.7 21.6 0 39.1 10.1 39.1 22.7 0 12.6-17.5 22.8-39.1 22.8z"/>
		<path id="Layer" class="s1" d="m115.5 138.5c-10.8 18.8-28.4 28.8-39.3 22.5-10.9-6.3-11-26.5-0.1-45.2 10.8-18.8 28.3-28.8 39.2-22.5 10.9 6.3 11 26.5 0.2 45.2z"/>
		<path id="Layer" class="s1" d="m263.9 224.2c-10.8 18.8-28.3 28.8-39.2 22.5-10.9-6.3-11-26.5-0.2-45.2 10.8-18.8 28.4-28.8 39.3-22.5 10.9 6.3 10.9 26.5 0.1 45.2z"/>
		<path id="Layer" class="s1" d="m115.3 246.7c-10.9 6.3-28.4-3.7-39.2-22.5-10.8-18.7-10.8-38.9 0.1-45.2 10.9-6.3 28.5 3.7 39.3 22.5 10.8 18.7 10.7 38.9-0.2 45.2z"/>
		<path id="Layer" class="s1" d="m263.8 161c-10.9 6.3-28.5-3.7-39.3-22.5-10.8-18.7-10.7-38.9 0.2-45.2 10.9-6.3 28.4 3.7 39.2 22.5 10.8 18.7 10.8 38.9-0.1 45.2z"/>
	</g>
</svg>